<svg id="Banner" xmlns="http://www.w3.org/2000/svg" viewBox="0 0 1279.5 363">
    <defs>
        <style>
            .cls-1 {
                fill: #219dd0;
            }

            .cls-2 {
                font-size: 63.45px;
                font-family: FiraCode-Regular, Fira Code;
            }

            .cls-2,
            .cls-3 {
                fill: #444;
            }

            @media (prefers-color-scheme: light) {
                .cls-2,
                .cls-3 {
                    fill: #f1faff;
                }
            }
        </style>
    </defs>
    <g id="tags">
        <path class="cls-1" d="M125.9,54.18,148.06,90,43.84,152.25l104.22,61.1-23,37L0,170.81V134Z"
            transform="translate(0)" />
        <path class="cls-1" d="M1153.92,54.15l125.58,79.51v37.12l-125.1,79.5-23-35.32,104.38-62.74L1131.44,91.44Z"
            transform="translate(0)" />
    </g><text class="cls-2" transform="translate(397.1 330.46) scale(0.98 1)">
        <tspan xml:space="preserve">web solutions</tspan>
    </text>
    <g id="ig">
        <polygon class="cls-3"
            points="905.86 212.98 905.86 69.25 803.4 69.25 803.4 105.94 852.52 105.94 852.52 212.98 801.71 212.98 801.71 249.67 951.43 249.67 951.43 212.98 905.86 212.98" />
        <path class="cls-3"
            d="M1108.65,45.88l12.48,39.42A94.37,94.37,0,0,1,1099,90.74a225.34,225.34,0,0,1-29.53,1.69q16.88,7.32,25.74,18.1t8.86,28.28A54.19,54.19,0,0,1,1094.8,170q-9.27,13.68-26.33,21.49t-40.33,7.82a100.15,100.15,0,0,1-20.77-2,10.4,10.4,0,0,0-4.39,4.42,12.64,12.64,0,0,0-1.52,5.94,10.49,10.49,0,0,0,3.46,7.65q3.47,3.4,16.29,3.4h29.37q20.93,0,36.21,6.79T1110.5,244a44.75,44.75,0,0,1,8.44,26.84q0,27.69-24.14,43.67t-71.73,16q-34.44,0-53.25-7t-26.16-20.05q-7.35-13-7.35-30.83h47.27q0,7.8,3.12,12.82t12,7.39q8.87,2.38,25.74,2.38,17.05,0,26-2.72t12.23-7.39a17.7,17.7,0,0,0,3.29-10.45,15.67,15.67,0,0,0-6.24-12.91q-6.26-4.92-19.75-4.93h-28.53q-29,0-42.19-10.78t-13.17-25.23a36.9,36.9,0,0,1,5.32-19,44.94,44.94,0,0,1,14.94-15.12q-17.22-9.18-24.64-21.67t-7.43-30q0-20.39,10.29-35.09T983,77.14q18.15-8,41.44-8,20.08.34,34.94-2.81A122.92,122.92,0,0,0,1086,57.69Q1097.84,52.17,1108.65,45.88ZM1025.77,104q-12.66,0-20.09,8.07t-7.42,22.17q0,15,7.6,22.93t19.91,8q27.35,0,27.35-31.6Q1053.12,104,1025.77,104Z"
            transform="translate(0)" />
        <ellipse class="cls-3" cx="876.57" cy="29.32" rx="28.66" ry="29.32" />
    </g>
    <g id="z">
        <polygon class="cls-1" points="852.52 0 804.81 0 516.19 330.46 559.17 330.46 852.52 0" />
        <polygon class="cls-3" points="629.42 69.95 629.42 104.68 707.24 104.68 737.51 69.95 629.42 69.95" />
        <polygon class="cls-3" points="746.05 249.9 746.05 215.17 668.22 215.17 637.96 249.9 746.05 249.9" />
    </g>
    <g id="lut">
        <path class="cls-3"
            d="M209.35,0V189.63q0,10.56,5.89,15.09t16.2,4.54a50.91,50.91,0,0,0,12.73-1.57l11.46-2.94a.27.27,0,0,1,.32.18l11.92,33.84a107.54,107.54,0,0,1-21,8.09,105.73,105.73,0,0,1-28.53,3.46q-30.94,0-45.46-18.22t-14.51-48.9V35.62H108V0Z"
            transform="translate(0)" />
        <path class="cls-3"
            d="M322.51,69.59h0V189.47q0,12.71,4.59,17.48t12.81,4.78a28.85,28.85,0,0,0,15.8-5.11,42.44,42.44,0,0,0,13.22-13.85V69.59h50.94V244.71H381.15a6.51,6.51,0,0,1-6.41-5.86l-1.61-14.58h0a55.18,55.18,0,0,1-22.89,19.45,69.51,69.51,0,0,1-29.66,6.6q-24.82,0-36.92-14.76T271.57,195.9V69.59h50.94Z"
            transform="translate(0)" />
        <path class="cls-3"
            d="M576.81,69.59l-5,36H548m0,0H521.68V185q0,13,5.8,18.63T546,209.26A58,58,0,0,0,562.54,207l13.94-4.15a.35.35,0,0,1,.4.17l16,31.44a100,100,0,0,1-24.18,11.21,102.83,102.83,0,0,1-31.92,4.62q-33.53,0-49.81-17.56T470.74,185V105.54H434.79V69.59h35.95V31.66l50.94-6.26V69.59h55.13"
            transform="translate(0)" />
    </g>
</svg>