<svg id="prefix__Banner" xmlns="http://www.w3.org/2000/svg" viewBox="0 0 1279.5 363"><defs><style>.prefix__cls-1{fill:#219dd0}.prefix__cls-3{fill:#444}@media (prefers-color-scheme:light){.prefix__cls-3{fill:#f1faff}}</style></defs><g id="prefix__tags"><path class="prefix__cls-1" d="M125.9 54.18L148.06 90 43.84 152.25l104.22 61.1-23 37L0 170.81V134zM1153.92 54.15l125.58 79.51v37.12l-125.1 79.5-23-35.32 104.38-62.74-104.34-60.78z"/></g><text transform="matrix(.98 0 0 1 397.1 330.46)" fill="#444" font-size="63.45" font-family="FiraCode-Regular,Fira Code"><tspan>web solutions</tspan></text><g id="prefix__ig"><path class="prefix__cls-3" d="M905.86 212.98V69.25H803.4v36.69h49.12v107.04h-50.81v36.69h149.72v-36.69h-45.57z"/><path class="prefix__cls-3" d="M1108.65 45.88l12.48 39.42a94.37 94.37 0 01-22.13 5.44 225.34 225.34 0 01-29.53 1.69q16.88 7.32 25.74 18.1t8.86 28.28a54.19 54.19 0 01-9.27 31.19q-9.27 13.68-26.33 21.49t-40.33 7.82a100.15 100.15 0 01-20.77-2 10.4 10.4 0 00-4.39 4.42 12.64 12.64 0 00-1.52 5.94 10.49 10.49 0 003.46 7.65q3.47 3.4 16.29 3.4h29.37q20.93 0 36.21 6.79T1110.5 244a44.75 44.75 0 018.44 26.84q0 27.69-24.14 43.67t-71.73 16q-34.44 0-53.25-7t-26.16-20.05q-7.35-13-7.35-30.83h47.27q0 7.8 3.12 12.82t12 7.39q8.87 2.38 25.74 2.38 17.05 0 26-2.72t12.23-7.39a17.7 17.7 0 003.29-10.45 15.67 15.67 0 00-6.24-12.91q-6.26-4.92-19.75-4.93h-28.53q-29 0-42.19-10.78t-13.17-25.23a36.9 36.9 0 015.32-19 44.94 44.94 0 0114.94-15.12q-17.22-9.18-24.64-21.67t-7.43-30q0-20.39 10.29-35.09T983 77.14q18.15-8 41.44-8 20.08.34 34.94-2.81a122.92 122.92 0 0026.62-8.64q11.84-5.52 22.65-11.81zM1025.77 104q-12.66 0-20.09 8.07t-7.42 22.17q0 15 7.6 22.93t19.91 8q27.35 0 27.35-31.6 0-29.57-27.35-29.57z"/><ellipse class="prefix__cls-3" cx="876.57" cy="29.32" rx="28.66" ry="29.32"/></g><g id="prefix__z"><path class="prefix__cls-1" d="M852.52 0h-47.71L516.19 330.46h42.98L852.52 0z"/><path class="prefix__cls-3" d="M629.42 69.95v34.73h77.82l30.27-34.73H629.42zM746.05 249.9v-34.73h-77.83l-30.26 34.73h108.09z"/></g><g id="prefix__lut"><path class="prefix__cls-3" d="M209.35 0v189.63q0 10.56 5.89 15.09t16.2 4.54a50.91 50.91 0 0012.73-1.57l11.46-2.94a.27.27 0 01.32.18l11.92 33.84a107.54 107.54 0 01-21 8.09 105.73 105.73 0 01-28.53 3.46q-30.94 0-45.46-18.22t-14.51-48.9V35.62H108V0zM322.51 69.59v119.88q0 12.71 4.59 17.48t12.81 4.78a28.85 28.85 0 0015.8-5.11 42.44 42.44 0 0013.22-13.85V69.59h50.94v175.12h-38.72a6.51 6.51 0 01-6.41-5.86l-1.61-14.58a55.18 55.18 0 01-22.89 19.45 69.51 69.51 0 01-29.66 6.6q-24.82 0-36.92-14.76t-12.09-39.66V69.59h50.94zM576.81 69.59l-5 36H548m0 0h-26.32V185q0 13 5.8 18.63t18.52 5.63a58 58 0 0016.54-2.26l13.94-4.15a.35.35 0 01.4.17l16 31.44a100 100 0 01-24.18 11.21 102.83 102.83 0 01-31.92 4.62q-33.53 0-49.81-17.56T470.74 185v-79.46h-35.95V69.59h35.95V31.66l50.94-6.26v44.19h55.13"/></g></svg>