<svg id="Icon" xmlns="http://www.w3.org/2000/svg" viewBox="0 0 1000 669">
    <defs>
        <style>
            .cls-1 {
                fill: #438ccf;
            }

            .cls-2 {
                fill: #f1faff;
            }

            @media (prefers-color-scheme: light) {
                .cls-2 {
                    fill: #444;
                }
            }
        </style>
    </defs>
    <g id="Tags">
        <path class="cls-1" d="M405.4,40l17.24,69.05L71.25,226.31,310.31,510.78,256.77,557,0,248.7l22.21-79.42Z"
            transform="translate(0 -1)" />
        <path class="cls-1" d="M594.6,617.28l-17.24-69L928.75,431,689.69,146.53l53.54-46.25L1000,408.61,977.79,488Z"
            transform="translate(0 -1)" />
    </g>
    <g id="Z">
        <polygon class="cls-2" points="829.1 0 734.23 0 160.33 669 245.8 669 829.1 0" />
        <polygon class="cls-2" points="369.68 154.38 369.68 223 524.01 223 584.03 154.38 369.68 154.38" />
        <polygon class="cls-2" points="618.39 506.04 618.39 437.42 464.06 437.42 404.04 506.04 618.39 506.04" />
    </g>
</svg>